<svg xmlns="http://www.w3.org/2000/svg" viewBox="0 0 200 200">
  <defs>
    <linearGradient id="mainGradient" x1="0%" y1="0%" x2="100%" y2="100%">
      <stop offset="0%" stop-color="#9d5cff" />
      <stop offset="100%" stop-color="#5c11ff" />
    </linearGradient>
    <linearGradient id="accentGradient" x1="0%" y1="0%" x2="100%" y2="100%">
      <stop offset="0%" stop-color="#ff3e6c" />
      <stop offset="100%" stop-color="#ff8f6c" />
    </linearGradient>
    <filter id="glow" x="-20%" y="-20%" width="140%" height="140%">
      <feGaussianBlur stdDeviation="3" result="blur" />
      <feComposite in="SourceGraphic" in2="blur" operator="over" />
    </filter>
  </defs>
  
  <!-- Círculo de fondo -->
  <circle cx="100" cy="100" r="90" fill="#121212" />
  
  <!-- Letra G estilizada -->
  <path d="M75 60 C60 60, 50 75, 50 90 C50 115, 70 130, 95 130 L120 130 L120 100 L90 100 L90 85 L115 85" 
        stroke="#ffffff" stroke-width="12" fill="none" stroke-linecap="round" stroke-linejoin="round" />
  
  <!-- Símbolo de Achí estilizado (vasija) -->
  <path d="M125 80 C125 70, 145 70, 145 80 L140 110 C140 115, 130 115, 130 110 Z" 
        fill="url(#accentGradient)" filter="url(#glow)" />
  
  <!-- Línea ondulada (representando el elemento tolimense y fitness) -->
  <path d="M50 140 C65 135, 80 145, 95 140 C110 135, 125 145, 140 140" 
        stroke="url(#mainGradient)" stroke-width="5" fill="none" stroke-linecap="round" />
</svg>